<?xml version="1.0" encoding="utf-8"?>
<!-- Generator: Adobe Illustrator 26.0.3, SVG Export Plug-In . SVG Version: 6.00 Build 0)  -->
<svg version="1.0" id="katman_1" xmlns="http://www.w3.org/2000/svg" xmlns:xlink="http://www.w3.org/1999/xlink" x="0px" y="0px"
	 viewBox="0 0 600 450" style="enable-background:new 0 0 600 450;" xml:space="preserve">
<style type="text/css">
	.st0{fill:#ffffff;}
</style>
<symbol  id="icon-cup" viewBox="-8.1 -7.5 16.1 15">
	<path class="st0" d="M6-1.5H-7.6c-0.3,0-0.5,0.2-0.5,0.5c0,1.5,0.3,3,0.9,4.3c0.6,1.3,1.4,2.3,2.4,3.1c0.1,0.1,0.2,0.1,0.3,0.1
		h-2.1c-0.3,0-0.5,0.2-0.5,0.5s0.2,0.5,0.5,0.5h10c0.3,0,0.5-0.2,0.5-0.5S3.7,6.5,3.4,6.5H1.3c0.1,0,0.2,0,0.3-0.1
		c0.9-0.7,1.7-1.6,2.3-2.8H4c1.6,0,2.5-0.6,3.1-1c0.6-0.6,1-1.3,1-2C8.1-0.6,7.1-1.5,6-1.5L6-1.5z M3.3,2.5h-9.7
		c-0.4-0.9-0.6-1.9-0.6-3h11C3.9,0.6,3.7,1.6,3.3,2.5L3.3,2.5z M6.3,1.8C6,2.1,5.4,2.4,4.4,2.5c0.3-0.9,0.5-1.9,0.6-2.9H6
		c0.5,0,0.9,0.4,0.9,0.9C6.9,0.9,6.8,1.4,6.3,1.8L6.3,1.8z"/>
	<path class="st0" d="M-3.6-2.5c-0.3,0-0.5-0.2-0.5-0.5v-2c0-0.3,0.2-0.5,0.5-0.5S-3.1-5.3-3.1-5v2C-3.1-2.7-3.3-2.5-3.6-2.5z"/>
	<path class="st0" d="M-1.6-2.5c-0.3,0-0.5-0.2-0.5-0.5v-4c0-0.3,0.2-0.5,0.5-0.5S-1.1-7.3-1.1-7v4C-1.1-2.7-1.3-2.5-1.6-2.5z"/>
	<path class="st0" d="M0.4-2.5C0.2-2.5-0.1-2.7-0.1-3v-2c0-0.3,0.2-0.5,0.5-0.5S0.9-5.3,0.9-5v2C0.9-2.7,0.7-2.5,0.4-2.5z"/>
</symbol>
<use xlink:href="#icon-cup"  width="16.1" height="15" x="-8.1" y="-7.5" transform="matrix(12.3157 0 0 12.3157 432.4899 225)" style="overflow:visible;"/>
</svg>
